<?xml version="1.0" encoding="utf-8"?>
<!-- Generator: Adobe Illustrator 22.1.0, SVG Export Plug-In . SVG Version: 6.00 Build 0)  -->
<svg version="1.1" id="Default" xmlns="http://www.w3.org/2000/svg" xmlns:xlink="http://www.w3.org/1999/xlink" x="0px" y="0px"
	 viewBox="0 0 792 612" style="enable-background:new 0 0 792 612;" xml:space="preserve">
<style type="text/css">
	.st0{fill:#FFFFFF;stroke:#000000;stroke-width:0.25;stroke-miterlimit:10;}
	.st1{fill:#FF5500;stroke:#FF5500;stroke-width:0.25;stroke-miterlimit:10;}
	.st2{fill:#FFF800;stroke:#FFF800;stroke-width:0.25;stroke-miterlimit:10;}
	.st3{fill:#00FF00;stroke:#00FF00;stroke-width:0.25;stroke-miterlimit:10;}
	.st4{fill:#00FFF8;stroke:#00FFF8;stroke-width:0.25;stroke-miterlimit:10;}
	.st5{fill:#FF0000;stroke:#FF0000;stroke-width:0.25;stroke-miterlimit:10;}
	.st6{fill:none;stroke:#000000;stroke-width:0.75;stroke-linecap:round;stroke-linejoin:round;}
	.st7{fill:none;stroke:#000000;stroke-linecap:round;stroke-linejoin:round;}
	.st8{fill:#D19309;stroke:#000000;stroke-width:0.5;stroke-linecap:round;stroke-linejoin:round;}
	.st9{fill:none;}
	.st10{font-family:'MyriadPro-Bold';}
	.st11{font-size:16.4357px;}
	.st12{fill:#FFFFFF;stroke:#000000;stroke-width:0.25;stroke-linecap:round;}
	.st13{opacity:0.2;fill:none;stroke:#000000;stroke-width:0.25;stroke-linecap:round;}
	.st14{opacity:0.2;fill:none;stroke:#000000;stroke-width:0.25;stroke-miterlimit:10;}
	.st15{fill:none;stroke:#00F9FF;stroke-width:0.75;stroke-linecap:round;stroke-linejoin:round;}
	.st16{fill:#00F9FF;}
	.st17{fill:none;stroke:#FF5500;stroke-width:0.75;stroke-linecap:round;stroke-linejoin:round;}
	.st18{fill:#FF5500;}
	.st19{font-family:'CenturyGothic-Bold';}
	.st20{font-size:39.771px;}
	.st21{font-family:'CenturyGothic';}
	.st22{font-size:15.2617px;}
	.st23{font-size:12.1475px;}
	.st24{font-size:13.0912px;}
	.st25{font-size:11.8241px;}
	.st26{fill:#FFFFFF;stroke:#000000;stroke-width:0.75;stroke-linecap:round;stroke-linejoin:round;}
	.st27{fill:none;stroke:#000000;stroke-width:0.5;stroke-linecap:round;stroke-linejoin:round;}
	.st28{fill:#231F20;stroke:#FFFFFF;stroke-width:0.25;stroke-linecap:round;}
	.st29{fill:#2500FF;}
	.st30{font-family:'Courier';}
	.st31{font-size:1.3404px;}
	.st32{fill:#231F20;}
	.st33{fill:#FFFFFF;}
	.st34{fill:#59E525;}
	.st35{fill:#CC1FAB;}
	.st36{fill:#71C8B4;}
	.st37{stroke:#000000;stroke-linecap:round;stroke-linejoin:round;}
	.st38{fill:none;stroke:#FFFFFF;stroke-linecap:round;stroke-linejoin:round;}
	.st39{fill:none;stroke:#000000;stroke-width:0.25;stroke-linecap:round;stroke-linejoin:round;}
	.st40{fill:#CECECE;stroke:#000000;stroke-width:0.5;stroke-linecap:round;}
	.st41{fill:#EFEFEF;stroke:#000000;stroke-width:0.5;stroke-linecap:round;}
	.st42{fill:none;stroke:#0098FF;stroke-width:0.5;stroke-linecap:round;stroke-linejoin:round;}
	.st43{opacity:0.5;fill:#C7F1FF;stroke:#231F20;stroke-width:0.5;stroke-linecap:round;stroke-linejoin:round;}
	.st44{fill:#231F20;stroke:#231F20;stroke-width:0.75;stroke-linecap:round;stroke-linejoin:round;}
	.st45{fill:none;stroke:#FFFFFF;stroke-width:0.25;stroke-linecap:round;stroke-linejoin:round;}
</style>
<polygon class="st0" points="114.6,194.2 222.7,241.3 265.2,198.2 157.2,151.2 "/>
<polygon class="st1" points="143.2,202.6 156.3,208.3 173.3,191.2 160.2,185.4 "/>
<polygon class="st2" points="164.7,212 177.8,217.7 202,193.3 188.9,187.5 "/>
<polygon class="st3" points="186.1,221.3 199.2,227 230.5,195.3 217.4,189.6 "/>
<polygon class="st4" points="207.3,230.5 220.4,236.2 257.7,198.5 244.5,192.8 "/>
<polygon class="st5" points="121.6,193.2 134.8,198.9 144.8,188.8 131.7,183.1 "/>
<polygon class="st6" points="724.4,292.4 456,292.4 320.1,447.2 590.2,447.2 "/>
<polyline class="st7" points="672.7,357.1 590.2,452.4 320.1,452.4 320.1,447.2 "/>
<polyline class="st7" points="320.1,137.7 320.1,132.5 590.2,132.5 724.4,287.3 724.4,292.4 724.4,297.6 677.2,352 "/>
<g>
	<path class="st8" d="M88.6,302.1c0,0.5,0,1,0,1.5c0,5.7,5.3,9.5,10.6,9.5c5.3,0,10.6-3.8,10.6-9.5c0-0.5,0-1,0-1.5"/>
	<path class="st8" d="M99.2,311.6c5.3,0,10.6-3.8,10.6-9.5c0-5.7-5.3-9.5-10.6-9.5s-10.6,3.8-10.6,9.5
		C88.6,307.8,93.8,311.6,99.2,311.6z"/>
	<rect x="93.3" y="296.2" class="st9" width="11.7" height="11.7"/>
	<text transform="matrix(1 0 0 1 93.2864 307.8677)" class="st10 st11">C</text>
</g>
<g>
	<path class="st8" d="M290.1,217.9c0,0.5,0,1,0,1.5c0,5.7,5.3,9.5,10.6,9.5s10.6-3.8,10.6-9.5c0-0.5,0-1,0-1.5"/>
	<path class="st8" d="M300.7,227.4c5.3,0,10.6-3.8,10.6-9.5c0-5.7-5.3-9.5-10.6-9.5s-10.6,3.8-10.6,9.5
		C290.1,223.7,295.4,227.4,300.7,227.4z"/>
	<rect x="295.3" y="212" class="st9" width="11.7" height="11.7"/>
	<text transform="matrix(1 0 0 1 295.3081 223.7051)" class="st10 st11">C</text>
</g>
<g>
	<path class="st8" d="M367.3,320.1c0,0.5,0,1,0,1.5c0,5.7,5.3,9.5,10.6,9.5s10.6-3.8,10.6-9.5c0-0.5,0-1,0-1.5"/>
	<path class="st8" d="M377.9,329.6c5.3,0,10.6-3.8,10.6-9.5s-5.3-9.5-10.6-9.5s-10.6,3.8-10.6,9.5
		C367.3,325.9,372.6,329.6,377.9,329.6z"/>
	<rect x="372.7" y="314.2" class="st9" width="11.7" height="11.7"/>
	<text transform="matrix(1 0 0 1 372.6929 325.9038)" class="st10 st11">C</text>
</g>
<g>
	<polygon class="st12" points="213,384.2 340.8,370.1 329.5,312.6 201.7,326.7 	"/>
	<line class="st13" x1="212.1" y1="379.3" x2="340" y2="365.2"/>
	<line class="st13" x1="211.2" y1="373.9" x2="339" y2="359.8"/>
	<line class="st13" x1="209.9" y1="367.9" x2="337.7" y2="353.8"/>
	<line class="st13" x1="209" y1="362.2" x2="336.8" y2="348.1"/>
	<line class="st13" x1="207.8" y1="356.5" x2="335.6" y2="342.4"/>
	<line class="st13" x1="206.7" y1="351" x2="334.5" y2="336.9"/>
	<line class="st13" x1="205.6" y1="345.1" x2="333.4" y2="331"/>
	<line class="st13" x1="204.3" y1="339.2" x2="332.1" y2="325.1"/>
	<line class="st13" x1="203.1" y1="333" x2="330.9" y2="318.8"/>
	<line class="st13" x1="335.8" y1="370.4" x2="324.5" y2="312.9"/>
	<line class="st13" x1="330.6" y1="371.2" x2="319.4" y2="313.7"/>
	<line class="st13" x1="325" y1="371.9" x2="313.7" y2="314.3"/>
	<line class="st13" x1="319.2" y1="372.5" x2="307.9" y2="315"/>
	<line class="st13" x1="313.5" y1="373" x2="302.2" y2="315.5"/>
	<line class="st13" x1="307.1" y1="374" x2="295.8" y2="316.5"/>
	<line class="st13" x1="300.5" y1="374.7" x2="289.3" y2="317.2"/>
	<line class="st13" x1="293.9" y1="375.5" x2="282.6" y2="318"/>
	<line class="st13" x1="287.2" y1="375.9" x2="275.9" y2="318.3"/>
	<line class="st14" x1="280.6" y1="376.9" x2="269.3" y2="319.4"/>
	<line class="st14" x1="268.7" y1="378.2" x2="257.4" y2="320.7"/>
	<line class="st14" x1="274.3" y1="377.2" x2="263" y2="319.6"/>
	<line class="st14" x1="252" y1="379.8" x2="240.7" y2="322.3"/>
	<line class="st14" x1="257.6" y1="379.6" x2="246.3" y2="322"/>
	<line class="st14" x1="263.2" y1="378.4" x2="252" y2="320.9"/>
	<line class="st14" x1="217.8" y1="383.7" x2="206.5" y2="326.2"/>
	<line class="st14" x1="223.3" y1="383.3" x2="212" y2="325.7"/>
	<line class="st14" x1="228.9" y1="382.4" x2="217.7" y2="324.9"/>
	<line class="st14" x1="234.9" y1="381.7" x2="223.6" y2="324.2"/>
	<line class="st14" x1="240.6" y1="381" x2="229.3" y2="323.4"/>
	<line class="st14" x1="246.2" y1="380.8" x2="234.9" y2="323.3"/>
	<g>
		<g>
			<polyline class="st15" points="215.2,381.9 224.5,373.7 242.4,372.4 260.5,354.1 284.9,367.7 325.7,338.7 			"/>
			<g>
				<polygon class="st16" points="325.6,342.2 324.9,339.2 322.4,337.6 329.3,336.1 				"/>
			</g>
		</g>
	</g>
	<g>
		<g>
			<polyline class="st17" points="214.8,374 222.1,361.3 236.6,362.3 261.6,338.7 295.2,345.2 320.8,327.6 			"/>
			<g>
				<polygon class="st18" points="320.7,331 320,328.1 317.5,326.5 324.5,325 				"/>
			</g>
		</g>
	</g>
</g>
<text transform="matrix(0.9494 -0.314 0.314 0.9494 183.1399 310.7448)" class="st19 st20">FinTalk</text>
<text transform="matrix(0.9864 0.1643 -0.1643 0.9864 124.7963 357.6801)" class="st21 st22">EBITDA</text>
<text transform="matrix(0.8758 -0.4827 0.4827 0.8758 133.185 313.0619)" class="st21 st23">&lt;/a&gt;</text>
<text transform="matrix(0.9864 0.1643 -0.1643 0.9864 264.5553 173.404)" class="st21 st24">&lt;div</text>
<text transform="matrix(0.9504 0.3109 -0.3109 0.9504 332.8401 264.7069)" class="st21 st25">{%else%}</text>
<g>
	<path class="st26" d="M746.1,370.1c10.2,1.4,7.2,11.7,2,18.5c-5.2,6.9-17,16-27.2,14.7c-10.2-1.4-7.2-11.7-2-18.5
		C724.1,377.9,735.9,368.7,746.1,370.1z"/>
	<line class="st27" x1="736" y1="383.2" x2="745.4" y2="370"/>
	<path class="st27" d="M718.3,385.6c7.5-2.5,11.9-2.7,15.4-2.6c3.4,0.1,5.8,0.6,7.9,1.5c2.1,0.9,4,2.3,6.6,4.2"/>
	<path class="st6" d="M750.3,371.4c6.3,2.9,3.4,11.6-1.1,17.7c-5.2,7-17.1,16.3-27.4,15.1c-2.9-0.3-4.7-1.4-5.8-2.9"/>
</g>
<g>
	<polygon class="st28" points="110.9,226.6 144.9,266.8 75.7,266.8 41.3,226.6 	"/>
	<line class="st28" x1="42.5" y1="228" x2="112.1" y2="228"/>
	<path class="st9" d="M46.7,229.1h66c0.2,0,0.3,0.1,0.5,0.2l29.7,35.4c0.3,0.4,0.1,1-0.5,1l-65.4,0.2c-0.2,0-0.3-0.1-0.5-0.2
		L46.3,230C45.9,229.7,46.2,229.1,46.7,229.1z"/>
	<text transform="matrix(1.0086 0 0 1 46.3269 230.1138)"><tspan x="0" y="0" class="st29 st30 st31">def</tspan><tspan x="2.4" y="0" class="st32 st30 st31"> </tspan><tspan x="3.2" y="0" class="st33 st30 st31">add5(x):</tspan><tspan x="2.3" y="2.7" class="st32 st30 st31">   </tspan><tspan x="4.7" y="2.7" class="st29 st30 st31">return</tspan><tspan x="9.5" y="2.7" class="st32 st30 st31"> </tspan><tspan x="10.3" y="2.7" class="st33 st30 st31">x+</tspan><tspan x="11.9" y="2.7" class="st34 st30 st31">5</tspan><tspan x="6.8" y="8" class="st29 st30 st31">def</tspan><tspan x="9.2" y="8" class="st32 st30 st31"> </tspan><tspan x="10" y="8" class="st33 st30 st31">dotwrite(ast):</tspan><tspan x="9.1" y="10.7" class="st33 st30 st31">   nodename = getNodename()</tspan><tspan x="11.4" y="13.4" class="st33 st30 st31">   label=symbol.sym_name.get(</tspan><tspan x="34.7" y="13.4" class="st35 st30 st31">int</tspan><tspan x="37.1" y="13.4" class="st33 st30 st31">(ast[</tspan><tspan x="41.1" y="13.4" class="st34 st30 st31">0</tspan><tspan x="41.9" y="13.4" class="st33 st30 st31">],ast[</tspan><tspan x="46.7" y="13.4" class="st34 st30 st31">0</tspan><tspan x="47.5" y="13.4" class="st33 st30 st31">])</tspan><tspan x="13.6" y="16.1" class="st32 st30 st31">   </tspan><tspan x="16" y="16.1" class="st29 st30 st31">print</tspan><tspan x="20.1" y="16.1" class="st32 st30 st31"> </tspan><tspan x="20.9" y="16.1" class="st36 st30 st31">‘ %s [label=”%s’</tspan><tspan x="33.7" y="16.1" class="st32 st30 st31"> </tspan><tspan x="34.5" y="16.1" class="st33 st30 st31">% (nodename, label),</tspan><tspan x="15.9" y="18.8" class="st32 st30 st31">   </tspan><tspan x="18.3" y="18.8" class="st29 st30 st31">if</tspan><tspan x="19.9" y="18.8" class="st32 st30 st31"> </tspan><tspan x="20.7" y="18.8" class="st33 st30 st31">isinstance(ast[</tspan><tspan x="32.8" y="18.8" class="st34 st30 st31">1</tspan><tspan x="33.6" y="18.8" class="st33 st30 st31">],</tspan><tspan x="35.2" y="18.8" class="st32 st30 st31"> </tspan><tspan x="36" y="18.8" class="st35 st30 st31">str</tspan><tspan x="38.4" y="18.8" class="st33 st30 st31">):</tspan><tspan x="18.2" y="21.4" class="st32 st30 st31">      </tspan><tspan x="23" y="21.4" class="st29 st30 st31">if</tspan><tspan x="24.6" y="21.4" class="st32 st30 st31"> </tspan><tspan x="25.4" y="21.4" class="st33 st30 st31">ast[</tspan><tspan x="28.6" y="21.4" class="st34 st30 st31">1</tspan><tspan x="29.4" y="21.4" class="st33 st30 st31">].strip():</tspan><tspan x="20.4" y="24.1" class="st32 st30 st31">         </tspan><tspan x="27.7" y="24.1" class="st29 st30 st31">print</tspan><tspan x="31.7" y="24.1" class="st32 st30 st31"> </tspan><tspan x="32.5" y="24.1" class="st36 st30 st31">‘= %s”];’</tspan><tspan x="39.7" y="24.1" class="st32 st30 st31"> </tspan><tspan x="40.5" y="24.1" class="st33 st30 st31">% ast[</tspan><tspan x="45.4" y="24.1" class="st34 st30 st31">1</tspan><tspan x="46.2" y="24.1" class="st33 st30 st31">]</tspan><tspan x="22.7" y="26.8" class="st32 st30 st31">      </tspan><tspan x="27.5" y="26.8" class="st29 st30 st31">else:</tspan><tspan x="25" y="29.5" class="st32 st30 st31">         </tspan><tspan x="32.2" y="29.5" class="st29 st30 st31">print</tspan><tspan x="36.2" y="29.5" class="st32 st30 st31"> </tspan><tspan x="37" y="29.5" class="st36 st30 st31">‘”]’</tspan><tspan x="27.3" y="32.2" class="st32 st30 st31">    </tspan><tspan x="30.5" y="32.2" class="st33 st30 st31">else:</tspan><tspan x="29.5" y="34.9" class="st33 st30 st31">       print</tspan><tspan x="39.2" y="34.9" class="st32 st30 st31"> </tspan><tspan x="40" y="34.9" class="st36 st30 st31">‘”];’ </tspan><tspan x="44.8" y="34.9" class="st33 st30 st31">% name,</tspan></text>
</g>
<g>
	<line class="st27" x1="590.2" y1="452.4" x2="590.2" y2="447.2"/>
	<line class="st27" x1="590.2" y1="137.7" x2="590.2" y2="132.5"/>
	<polygon class="st37" points="411,362.8 643.6,362.8 652.5,352.5 419.9,352.5 	"/>
	<polygon class="st37" points="422.2,349.9 654.8,349.9 663.7,339.6 431.2,339.6 	"/>
	<polygon class="st37" points="408.7,365.4 398.3,377.4 630.9,377.4 641.3,365.4 	"/>
	<line class="st38" x1="421.7" y1="365.4" x2="411.3" y2="377.4"/>
	<line class="st38" x1="432.9" y1="352.5" x2="423.9" y2="362.8"/>
	<line class="st38" x1="536.2" y1="352.5" x2="527.3" y2="362.8"/>
	<line class="st38" x1="523.3" y1="352.5" x2="514.4" y2="362.8"/>
	<line class="st38" x1="510.4" y1="352.5" x2="501.4" y2="362.8"/>
	<line class="st38" x1="497.5" y1="352.5" x2="488.5" y2="362.8"/>
	<line class="st38" x1="473.3" y1="365.4" x2="462.9" y2="377.4"/>
	<line class="st38" x1="484.6" y1="352.5" x2="475.6" y2="362.8"/>
	<line class="st38" x1="460.4" y1="365.4" x2="450" y2="377.4"/>
	<line class="st38" x1="471.6" y1="352.5" x2="462.7" y2="362.8"/>
	<line class="st38" x1="447.5" y1="365.4" x2="437.1" y2="377.4"/>
	<line class="st38" x1="458.7" y1="352.5" x2="449.7" y2="362.8"/>
	<line class="st38" x1="434.6" y1="365.4" x2="424.2" y2="377.4"/>
	<line class="st38" x1="445.8" y1="352.5" x2="436.8" y2="362.8"/>
	<line class="st38" x1="628.4" y1="365.4" x2="618" y2="377.4"/>
	<line class="st38" x1="589.6" y1="365.4" x2="579.2" y2="377.4"/>
	<line class="st38" x1="600.8" y1="352.5" x2="591.9" y2="362.8"/>
	<line class="st38" x1="602.6" y1="365.4" x2="592.2" y2="377.4"/>
	<line class="st38" x1="613.8" y1="352.5" x2="604.8" y2="362.8"/>
	<line class="st38" x1="615.5" y1="365.4" x2="605.1" y2="377.4"/>
	<line class="st38" x1="626.7" y1="352.5" x2="617.7" y2="362.8"/>
	<line class="st38" x1="562.1" y1="352.5" x2="553.1" y2="362.8"/>
	<line class="st38" x1="563.8" y1="365.4" x2="553.4" y2="377.4"/>
	<line class="st38" x1="575" y1="352.5" x2="566" y2="362.8"/>
	<line class="st38" x1="576.7" y1="365.4" x2="566.3" y2="377.4"/>
	<line class="st38" x1="587.9" y1="352.5" x2="579" y2="362.8"/>
	<line class="st38" x1="549.2" y1="352.5" x2="540.2" y2="362.8"/>
	<line class="st38" x1="547.4" y1="339.6" x2="538.5" y2="349.9"/>
	<line class="st38" x1="534.5" y1="339.6" x2="525.6" y2="349.9"/>
	<line class="st38" x1="521.6" y1="339.6" x2="512.6" y2="349.9"/>
	<line class="st38" x1="508.7" y1="339.6" x2="499.7" y2="349.9"/>
	<line class="st38" x1="495.8" y1="339.6" x2="486.8" y2="349.9"/>
	<line class="st38" x1="482.8" y1="339.6" x2="473.9" y2="349.9"/>
	<line class="st38" x1="469.9" y1="339.6" x2="461" y2="349.9"/>
	<line class="st38" x1="457" y1="339.6" x2="448" y2="349.9"/>
	<line class="st38" x1="650.8" y1="339.6" x2="641.8" y2="349.9"/>
	<line class="st38" x1="612" y1="339.6" x2="603.1" y2="349.9"/>
	<line class="st38" x1="625" y1="339.6" x2="616" y2="349.9"/>
	<line class="st38" x1="637.9" y1="339.6" x2="628.9" y2="349.9"/>
	<line class="st38" x1="573.3" y1="339.6" x2="564.3" y2="349.9"/>
	<line class="st38" x1="586.2" y1="339.6" x2="577.2" y2="349.9"/>
	<line class="st38" x1="599.1" y1="339.6" x2="590.2" y2="349.9"/>
	<line class="st38" x1="560.4" y1="339.6" x2="551.4" y2="349.9"/>
	<polygon class="st37" points="433.4,337 666,337 674.9,326.7 442.4,326.7 	"/>
	<line class="st38" x1="558.6" y1="326.7" x2="549.7" y2="337"/>
	<line class="st38" x1="545.7" y1="326.7" x2="536.8" y2="337"/>
	<line class="st38" x1="532.8" y1="326.7" x2="523.8" y2="337"/>
	<line class="st38" x1="519.9" y1="326.7" x2="510.9" y2="337"/>
	<line class="st38" x1="507" y1="326.7" x2="498" y2="337"/>
	<line class="st38" x1="494" y1="326.7" x2="485.1" y2="337"/>
	<line class="st38" x1="481.1" y1="326.7" x2="472.2" y2="337"/>
	<line class="st38" x1="468.2" y1="326.7" x2="459.2" y2="337"/>
	<line class="st38" x1="623.3" y1="326.7" x2="614.3" y2="337"/>
	<line class="st38" x1="636.2" y1="326.7" x2="627.2" y2="337"/>
	<line class="st38" x1="649.1" y1="326.7" x2="640.1" y2="337"/>
	<line class="st38" x1="584.5" y1="326.7" x2="575.5" y2="337"/>
	<line class="st38" x1="597.4" y1="326.7" x2="588.4" y2="337"/>
	<line class="st38" x1="610.3" y1="326.7" x2="601.4" y2="337"/>
	<line class="st38" x1="571.6" y1="326.7" x2="562.6" y2="337"/>
	<polygon class="st37" points="677.2,324.1 686.9,312.8 454.4,312.8 444.6,324.1 	"/>
	<line class="st38" x1="674" y1="312.8" x2="664.3" y2="324.1"/>
	<line class="st38" x1="635.3" y1="312.8" x2="625.5" y2="324.1"/>
	<line class="st38" x1="648.2" y1="312.8" x2="638.4" y2="324.1"/>
	<line class="st38" x1="661.1" y1="312.8" x2="651.3" y2="324.1"/>
	<line class="st38" x1="467.3" y1="312.8" x2="457.5" y2="324.1"/>
	<line class="st38" x1="596.5" y1="312.8" x2="586.7" y2="324.1"/>
	<line class="st38" x1="609.4" y1="312.8" x2="599.7" y2="324.1"/>
	<line class="st38" x1="622.3" y1="312.8" x2="612.6" y2="324.1"/>
	<line class="st38" x1="583.6" y1="312.8" x2="573.8" y2="324.1"/>
	<line class="st38" x1="570.7" y1="312.8" x2="560.9" y2="324.1"/>
	<line class="st38" x1="557.7" y1="312.8" x2="548" y2="324.1"/>
	<line class="st38" x1="544.8" y1="312.8" x2="535" y2="324.1"/>
	<line class="st38" x1="531.9" y1="312.8" x2="522.1" y2="324.1"/>
	<line class="st38" x1="519" y1="312.8" x2="509.2" y2="324.1"/>
	<line class="st38" x1="506" y1="312.8" x2="496.3" y2="324.1"/>
	<line class="st38" x1="493.1" y1="312.8" x2="483.4" y2="324.1"/>
	<line class="st38" x1="480.2" y1="312.8" x2="470.4" y2="324.1"/>
	<polyline class="st37" points="484.9,292.4 475.9,302.8 682.7,302.8 691.7,292.4 	"/>
	<polyline class="st39" points="480.5,297.6 458.3,297.6 331.5,442 587.8,442 713,297.6 687.2,297.6 	"/>
	<polygon class="st27" points="418.1,429.1 451.7,390.3 555.1,390.3 521.5,429.1 	"/>
	<polyline class="st6" points="343.2,164 320.1,137.7 590.2,137.7 724.4,292.4 456,292.4 432.9,266.1 	"/>
	<g>
		<polygon class="st40" points="512.9,164 610.9,266.1 411.5,266.1 312.3,164 		"/>
		<polygon class="st41" points="383.8,181.8 430.2,229.6 521.5,229.6 475.7,181.8 		"/>
		<line class="st42" x1="384.5" y1="182.6" x2="476.4" y2="182.6"/>
		<polygon class="st41" points="379.3,181.8 400.4,203.8 357.4,203.8 336.1,181.8 		"/>
		<line class="st42" x1="336.8" y1="182.6" x2="380" y2="182.6"/>
		<polygon class="st41" points="429,232.9 450.1,254.9 407.1,254.9 385.8,232.9 		"/>
		<line class="st42" x1="386.5" y1="233.7" x2="429.7" y2="233.7"/>
		<line class="st27" x1="315.8" y1="167.7" x2="516.4" y2="167.7"/>
		<polygon class="st41" points="432,232.9 523.9,232.9 545,254.9 453.4,254.9 		"/>
		<polygon class="st41" points="480.5,181.8 551.6,254.9 594.5,254.9 523.7,181.8 		"/>
		<line class="st42" x1="481.3" y1="182.6" x2="524.5" y2="182.6"/>
		<polygon class="st41" points="404.3,207.6 425.4,229.6 382.5,229.6 361.1,207.6 		"/>
		<line class="st42" x1="361.9" y1="208.3" x2="405.1" y2="208.3"/>
		<line class="st42" x1="432.8" y1="233.7" x2="524.6" y2="233.7"/>
	</g>
	<polygon class="st43" points="350.1,164 512.9,164 610.9,266.1 439.8,266.1 458.3,287.3 713,287.3 587.8,142.9 331.5,142.9 	"/>
	<g>
		<polygon class="st44" points="676.9,347.2 672.7,352 672.7,357.1 677.2,357.1 681.4,352.2 681.4,347.2 		"/>
		<polyline class="st45" points="677.2,357.5 677.2,352.2 672.7,352.2 677.2,352.2 681.4,347.2 		"/>
	</g>
</g>
</svg>
